<mxfile host="app.diagrams.net" agent="Mozilla/5.0 (Windows NT 10.0; Win64; x64) AppleWebKit/537.36 (KHTML, like Gecko) Chrome/130.0.0.0 Safari/537.36" version="27.1.6">
  <diagram name="Page-1" id="6Okkl2uaqrUX2nbMrPlV">
    <mxGraphModel dx="1308" dy="271" grid="1" gridSize="10" guides="1" tooltips="1" connect="1" arrows="1" fold="1" page="1" pageScale="1" pageWidth="827" pageHeight="1169" math="0" shadow="0">
      <root>
        <mxCell id="0" />
        <mxCell id="1" parent="0" />
        <mxCell id="9dR3rAM5AdJJmml7pfS0-4" style="edgeStyle=orthogonalEdgeStyle;rounded=0;orthogonalLoop=1;jettySize=auto;html=1;exitX=0.5;exitY=1;exitDx=0;exitDy=0;" edge="1" parent="1" source="9dR3rAM5AdJJmml7pfS0-1" target="9dR3rAM5AdJJmml7pfS0-2">
          <mxGeometry relative="1" as="geometry" />
        </mxCell>
        <mxCell id="9dR3rAM5AdJJmml7pfS0-5" style="edgeStyle=orthogonalEdgeStyle;rounded=0;orthogonalLoop=1;jettySize=auto;html=1;exitX=0.5;exitY=1;exitDx=0;exitDy=0;" edge="1" parent="1" source="9dR3rAM5AdJJmml7pfS0-1" target="9dR3rAM5AdJJmml7pfS0-3">
          <mxGeometry relative="1" as="geometry" />
        </mxCell>
        <mxCell id="9dR3rAM5AdJJmml7pfS0-1" value="Yinchorr at a crossroad" style="rounded=0;whiteSpace=wrap;html=1;" vertex="1" parent="1">
          <mxGeometry x="360" y="200" width="120" height="60" as="geometry" />
        </mxCell>
        <mxCell id="9dR3rAM5AdJJmml7pfS0-21" style="edgeStyle=orthogonalEdgeStyle;rounded=0;orthogonalLoop=1;jettySize=auto;html=1;exitX=0;exitY=0.5;exitDx=0;exitDy=0;entryX=1;entryY=0.5;entryDx=0;entryDy=0;" edge="1" parent="1" source="9dR3rAM5AdJJmml7pfS0-2" target="9dR3rAM5AdJJmml7pfS0-20">
          <mxGeometry relative="1" as="geometry" />
        </mxCell>
        <mxCell id="9dR3rAM5AdJJmml7pfS0-30" style="edgeStyle=orthogonalEdgeStyle;rounded=0;orthogonalLoop=1;jettySize=auto;html=1;exitX=0;exitY=0.5;exitDx=0;exitDy=0;entryX=1;entryY=0.5;entryDx=0;entryDy=0;" edge="1" parent="1" source="9dR3rAM5AdJJmml7pfS0-2" target="9dR3rAM5AdJJmml7pfS0-29">
          <mxGeometry relative="1" as="geometry" />
        </mxCell>
        <mxCell id="9dR3rAM5AdJJmml7pfS0-2" value="Side with the Republic" style="rounded=0;whiteSpace=wrap;html=1;" vertex="1" parent="1">
          <mxGeometry x="280" y="300" width="120" height="60" as="geometry" />
        </mxCell>
        <mxCell id="9dR3rAM5AdJJmml7pfS0-50" style="edgeStyle=orthogonalEdgeStyle;rounded=0;orthogonalLoop=1;jettySize=auto;html=1;exitX=1;exitY=0.5;exitDx=0;exitDy=0;entryX=0;entryY=0.5;entryDx=0;entryDy=0;" edge="1" parent="1" source="9dR3rAM5AdJJmml7pfS0-3" target="9dR3rAM5AdJJmml7pfS0-48">
          <mxGeometry relative="1" as="geometry" />
        </mxCell>
        <mxCell id="9dR3rAM5AdJJmml7pfS0-58" style="edgeStyle=orthogonalEdgeStyle;rounded=0;orthogonalLoop=1;jettySize=auto;html=1;exitX=1;exitY=0.5;exitDx=0;exitDy=0;entryX=0;entryY=0.5;entryDx=0;entryDy=0;" edge="1" parent="1" source="9dR3rAM5AdJJmml7pfS0-3" target="9dR3rAM5AdJJmml7pfS0-49">
          <mxGeometry relative="1" as="geometry" />
        </mxCell>
        <mxCell id="9dR3rAM5AdJJmml7pfS0-3" value="Side with the Separatists" style="rounded=0;whiteSpace=wrap;html=1;" vertex="1" parent="1">
          <mxGeometry x="440" y="300" width="120" height="60" as="geometry" />
        </mxCell>
        <mxCell id="9dR3rAM5AdJJmml7pfS0-7" value="&lt;strong data-end=&quot;112&quot; data-start=&quot;86&quot;&gt;High Fangmaster Threll&lt;/strong&gt; (Circle of the Shadowfang): CIS" style="rounded=1;whiteSpace=wrap;html=1;" vertex="1" parent="1">
          <mxGeometry x="920" y="280" width="120" height="60" as="geometry" />
        </mxCell>
        <mxCell id="9dR3rAM5AdJJmml7pfS0-8" value="&lt;strong data-end=&quot;461&quot; data-start=&quot;440&quot;&gt;Trade Lord Karesh&lt;/strong&gt;&amp;nbsp;(Civic Market Coalition): NEUTRAL" style="rounded=1;whiteSpace=wrap;html=1;" vertex="1" parent="1">
          <mxGeometry x="920" y="160" width="120" height="60" as="geometry" />
        </mxCell>
        <mxCell id="9dR3rAM5AdJJmml7pfS0-11" value="&lt;strong data-end=&quot;219&quot; data-start=&quot;198&quot;&gt;Elder Speaker Vux&lt;/strong&gt; (Assembly of the Great Clans): NEUTRAL" style="rounded=1;whiteSpace=wrap;html=1;" vertex="1" parent="1">
          <mxGeometry x="920" y="380" width="120" height="60" as="geometry" />
        </mxCell>
        <mxCell id="9dR3rAM5AdJJmml7pfS0-12" value="&lt;strong data-end=&quot;44&quot; data-start=&quot;27&quot;&gt;Archon Vekurr&lt;/strong&gt; (Order of the Golden Scale): NEUTRAL" style="rounded=1;whiteSpace=wrap;html=1;" vertex="1" parent="1">
          <mxGeometry x="1241" y="580" width="120" height="60" as="geometry" />
        </mxCell>
        <mxCell id="9dR3rAM5AdJJmml7pfS0-13" value="&lt;strong data-end=&quot;349&quot; data-start=&quot;316&quot;&gt;Governor-Administrator Zatrax&lt;/strong&gt; (Protectorate Administration): REP" style="rounded=1;whiteSpace=wrap;html=1;" vertex="1" parent="1">
          <mxGeometry x="-200" y="100" width="120" height="60" as="geometry" />
        </mxCell>
        <mxCell id="9dR3rAM5AdJJmml7pfS0-14" value="&lt;strong data-end=&quot;284&quot; data-start=&quot;263&quot;&gt;Countess Rai’Vesh&lt;/strong&gt; (Yinn Loyal Assembly): REP" style="rounded=1;whiteSpace=wrap;html=1;" vertex="1" parent="1">
          <mxGeometry x="-360" y="600" width="120" height="60" as="geometry" />
        </mxCell>
        <mxCell id="9dR3rAM5AdJJmml7pfS0-15" value="&lt;strong data-end=&quot;168&quot; data-start=&quot;149&quot;&gt;Consul Har’Niss&lt;/strong&gt; (Steelclaw Council): REP" style="rounded=1;whiteSpace=wrap;html=1;" vertex="1" parent="1">
          <mxGeometry x="-360" y="340" width="120" height="60" as="geometry" />
        </mxCell>
        <mxCell id="9dR3rAM5AdJJmml7pfS0-16" value="&lt;strong data-end=&quot;408&quot; data-start=&quot;389&quot;&gt;Dr. Isha Malrek&lt;/strong&gt; (Reformist Coalition): REP" style="rounded=1;whiteSpace=wrap;html=1;" vertex="1" parent="1">
          <mxGeometry x="-360" y="420" width="120" height="60" as="geometry" />
        </mxCell>
        <mxCell id="9dR3rAM5AdJJmml7pfS0-17" value="&lt;strong data-end=&quot;519&quot; data-start=&quot;500&quot;&gt;Senator V’aireh&lt;/strong&gt; (Inclusivity Front): NEUTRAL" style="rounded=1;whiteSpace=wrap;html=1;" vertex="1" parent="1">
          <mxGeometry x="-360" y="520" width="120" height="60" as="geometry" />
        </mxCell>
        <mxCell id="9dR3rAM5AdJJmml7pfS0-18" value="&lt;strong data-end=&quot;571&quot; data-start=&quot;553&quot;&gt;Master Sha’Lar&lt;/strong&gt; (Lightfang Sect): NEUTRAL" style="rounded=1;whiteSpace=wrap;html=1;" vertex="1" parent="1">
          <mxGeometry x="-200" y="180" width="120" height="60" as="geometry" />
        </mxCell>
        <mxCell id="9dR3rAM5AdJJmml7pfS0-19" value="&lt;strong data-end=&quot;621&quot; data-start=&quot;602&quot;&gt;Foreman Zur-Vek&lt;/strong&gt; (Workers’ Guild Alliance): NEUTRAL" style="rounded=1;whiteSpace=wrap;html=1;" vertex="1" parent="1">
          <mxGeometry x="1241" y="680" width="120" height="60" as="geometry" />
        </mxCell>
        <mxCell id="9dR3rAM5AdJJmml7pfS0-23" style="edgeStyle=orthogonalEdgeStyle;rounded=0;orthogonalLoop=1;jettySize=auto;html=1;exitX=0;exitY=0.5;exitDx=0;exitDy=0;entryX=1;entryY=0.5;entryDx=0;entryDy=0;" edge="1" parent="1" source="9dR3rAM5AdJJmml7pfS0-20" target="9dR3rAM5AdJJmml7pfS0-22">
          <mxGeometry relative="1" as="geometry" />
        </mxCell>
        <mxCell id="9dR3rAM5AdJJmml7pfS0-25" style="edgeStyle=orthogonalEdgeStyle;rounded=0;orthogonalLoop=1;jettySize=auto;html=1;exitX=0;exitY=0.5;exitDx=0;exitDy=0;entryX=1;entryY=0.5;entryDx=0;entryDy=0;" edge="1" parent="1" source="9dR3rAM5AdJJmml7pfS0-20" target="9dR3rAM5AdJJmml7pfS0-24">
          <mxGeometry relative="1" as="geometry" />
        </mxCell>
        <mxCell id="9dR3rAM5AdJJmml7pfS0-20" value="Military Government not abolished" style="rounded=0;whiteSpace=wrap;html=1;" vertex="1" parent="1">
          <mxGeometry x="120" y="240" width="120" height="60" as="geometry" />
        </mxCell>
        <mxCell id="9dR3rAM5AdJJmml7pfS0-27" style="edgeStyle=orthogonalEdgeStyle;rounded=0;orthogonalLoop=1;jettySize=auto;html=1;exitX=0;exitY=0.5;exitDx=0;exitDy=0;" edge="1" parent="1" source="9dR3rAM5AdJJmml7pfS0-22" target="9dR3rAM5AdJJmml7pfS0-13">
          <mxGeometry relative="1" as="geometry" />
        </mxCell>
        <mxCell id="9dR3rAM5AdJJmml7pfS0-22" value="Master Sha&#39;Lar fails to convince the Republic" style="rounded=0;whiteSpace=wrap;html=1;" vertex="1" parent="1">
          <mxGeometry x="-40" y="100" width="120" height="60" as="geometry" />
        </mxCell>
        <mxCell id="9dR3rAM5AdJJmml7pfS0-26" style="edgeStyle=orthogonalEdgeStyle;rounded=0;orthogonalLoop=1;jettySize=auto;html=1;exitX=0;exitY=0.5;exitDx=0;exitDy=0;entryX=1;entryY=0.5;entryDx=0;entryDy=0;" edge="1" parent="1" source="9dR3rAM5AdJJmml7pfS0-24" target="9dR3rAM5AdJJmml7pfS0-18">
          <mxGeometry relative="1" as="geometry" />
        </mxCell>
        <mxCell id="9dR3rAM5AdJJmml7pfS0-24" value="Master Sha&#39;Lar convince the Republic" style="rounded=0;whiteSpace=wrap;html=1;" vertex="1" parent="1">
          <mxGeometry x="-40" y="180" width="120" height="60" as="geometry" />
        </mxCell>
        <mxCell id="9dR3rAM5AdJJmml7pfS0-28" value="&lt;strong data-end=&quot;571&quot; data-start=&quot;553&quot;&gt;Master Sha’Lar&lt;/strong&gt; (Lightfang Sect): NEUTRAL" style="rounded=1;whiteSpace=wrap;html=1;" vertex="1" parent="1">
          <mxGeometry x="1080" y="480" width="120" height="60" as="geometry" />
        </mxCell>
        <mxCell id="9dR3rAM5AdJJmml7pfS0-34" style="edgeStyle=orthogonalEdgeStyle;rounded=0;orthogonalLoop=1;jettySize=auto;html=1;exitX=0;exitY=0.5;exitDx=0;exitDy=0;" edge="1" parent="1" source="9dR3rAM5AdJJmml7pfS0-29" target="9dR3rAM5AdJJmml7pfS0-31">
          <mxGeometry relative="1" as="geometry" />
        </mxCell>
        <mxCell id="9dR3rAM5AdJJmml7pfS0-40" style="edgeStyle=orthogonalEdgeStyle;rounded=0;orthogonalLoop=1;jettySize=auto;html=1;exitX=0;exitY=0.5;exitDx=0;exitDy=0;entryX=1;entryY=0.5;entryDx=0;entryDy=0;" edge="1" parent="1" source="9dR3rAM5AdJJmml7pfS0-29" target="9dR3rAM5AdJJmml7pfS0-39">
          <mxGeometry relative="1" as="geometry" />
        </mxCell>
        <mxCell id="9dR3rAM5AdJJmml7pfS0-29" value="Military Government is abolished" style="rounded=0;whiteSpace=wrap;html=1;" vertex="1" parent="1">
          <mxGeometry x="120" y="360" width="120" height="60" as="geometry" />
        </mxCell>
        <mxCell id="9dR3rAM5AdJJmml7pfS0-35" style="edgeStyle=orthogonalEdgeStyle;rounded=0;orthogonalLoop=1;jettySize=auto;html=1;exitX=0;exitY=0.5;exitDx=0;exitDy=0;" edge="1" parent="1" source="9dR3rAM5AdJJmml7pfS0-31" target="9dR3rAM5AdJJmml7pfS0-33">
          <mxGeometry relative="1" as="geometry" />
        </mxCell>
        <mxCell id="9dR3rAM5AdJJmml7pfS0-31" value="Reformists win the Election" style="rounded=0;whiteSpace=wrap;html=1;" vertex="1" parent="1">
          <mxGeometry x="-40" y="420" width="120" height="60" as="geometry" />
        </mxCell>
        <mxCell id="9dR3rAM5AdJJmml7pfS0-37" style="edgeStyle=orthogonalEdgeStyle;rounded=0;orthogonalLoop=1;jettySize=auto;html=1;exitX=0;exitY=0.5;exitDx=0;exitDy=0;" edge="1" parent="1" source="9dR3rAM5AdJJmml7pfS0-32" target="9dR3rAM5AdJJmml7pfS0-15">
          <mxGeometry relative="1" as="geometry" />
        </mxCell>
        <mxCell id="9dR3rAM5AdJJmml7pfS0-32" value="Consul Har&#39;Niss is chosen as representative" style="rounded=0;whiteSpace=wrap;html=1;" vertex="1" parent="1">
          <mxGeometry x="-200" y="340" width="120" height="60" as="geometry" />
        </mxCell>
        <mxCell id="9dR3rAM5AdJJmml7pfS0-38" style="edgeStyle=orthogonalEdgeStyle;rounded=0;orthogonalLoop=1;jettySize=auto;html=1;exitX=0;exitY=0.5;exitDx=0;exitDy=0;entryX=1;entryY=0.5;entryDx=0;entryDy=0;" edge="1" parent="1" source="9dR3rAM5AdJJmml7pfS0-33" target="9dR3rAM5AdJJmml7pfS0-16">
          <mxGeometry relative="1" as="geometry" />
        </mxCell>
        <mxCell id="9dR3rAM5AdJJmml7pfS0-33" value="Dr. Isha Malrek is chosen as representative" style="rounded=0;whiteSpace=wrap;html=1;" vertex="1" parent="1">
          <mxGeometry x="-200" y="420" width="120" height="60" as="geometry" />
        </mxCell>
        <mxCell id="9dR3rAM5AdJJmml7pfS0-36" style="edgeStyle=orthogonalEdgeStyle;rounded=0;orthogonalLoop=1;jettySize=auto;html=1;exitX=0;exitY=0.5;exitDx=0;exitDy=0;entryX=0.993;entryY=0.631;entryDx=0;entryDy=0;entryPerimeter=0;" edge="1" parent="1" source="9dR3rAM5AdJJmml7pfS0-31" target="9dR3rAM5AdJJmml7pfS0-32">
          <mxGeometry relative="1" as="geometry" />
        </mxCell>
        <mxCell id="9dR3rAM5AdJJmml7pfS0-46" style="edgeStyle=orthogonalEdgeStyle;rounded=0;orthogonalLoop=1;jettySize=auto;html=1;exitX=0;exitY=0.5;exitDx=0;exitDy=0;" edge="1" parent="1" source="9dR3rAM5AdJJmml7pfS0-39" target="9dR3rAM5AdJJmml7pfS0-41">
          <mxGeometry relative="1" as="geometry" />
        </mxCell>
        <mxCell id="9dR3rAM5AdJJmml7pfS0-47" style="edgeStyle=orthogonalEdgeStyle;rounded=0;orthogonalLoop=1;jettySize=auto;html=1;exitX=0;exitY=0.5;exitDx=0;exitDy=0;entryX=1;entryY=0.5;entryDx=0;entryDy=0;" edge="1" parent="1" source="9dR3rAM5AdJJmml7pfS0-39" target="9dR3rAM5AdJJmml7pfS0-42">
          <mxGeometry relative="1" as="geometry" />
        </mxCell>
        <mxCell id="9dR3rAM5AdJJmml7pfS0-39" value="Conservatives win the Election" style="rounded=0;whiteSpace=wrap;html=1;" vertex="1" parent="1">
          <mxGeometry x="-40" y="520" width="120" height="60" as="geometry" />
        </mxCell>
        <mxCell id="9dR3rAM5AdJJmml7pfS0-45" style="edgeStyle=orthogonalEdgeStyle;rounded=0;orthogonalLoop=1;jettySize=auto;html=1;exitX=0;exitY=0.5;exitDx=0;exitDy=0;" edge="1" parent="1" source="9dR3rAM5AdJJmml7pfS0-41" target="9dR3rAM5AdJJmml7pfS0-17">
          <mxGeometry relative="1" as="geometry" />
        </mxCell>
        <mxCell id="9dR3rAM5AdJJmml7pfS0-41" value="Senator V&#39;aireh is chosen as representative" style="rounded=0;whiteSpace=wrap;html=1;" vertex="1" parent="1">
          <mxGeometry x="-200" y="520" width="120" height="60" as="geometry" />
        </mxCell>
        <mxCell id="9dR3rAM5AdJJmml7pfS0-44" style="edgeStyle=orthogonalEdgeStyle;rounded=0;orthogonalLoop=1;jettySize=auto;html=1;exitX=0;exitY=0.5;exitDx=0;exitDy=0;" edge="1" parent="1" source="9dR3rAM5AdJJmml7pfS0-42" target="9dR3rAM5AdJJmml7pfS0-14">
          <mxGeometry relative="1" as="geometry" />
        </mxCell>
        <mxCell id="9dR3rAM5AdJJmml7pfS0-42" value="Countess Rai&#39;Vesh is chosen as representative" style="rounded=0;whiteSpace=wrap;html=1;" vertex="1" parent="1">
          <mxGeometry x="-200" y="600" width="120" height="60" as="geometry" />
        </mxCell>
        <mxCell id="9dR3rAM5AdJJmml7pfS0-53" style="edgeStyle=orthogonalEdgeStyle;rounded=0;orthogonalLoop=1;jettySize=auto;html=1;exitX=1;exitY=0.5;exitDx=0;exitDy=0;" edge="1" parent="1" source="9dR3rAM5AdJJmml7pfS0-48" target="9dR3rAM5AdJJmml7pfS0-51">
          <mxGeometry relative="1" as="geometry" />
        </mxCell>
        <mxCell id="9dR3rAM5AdJJmml7pfS0-48" value="Shadowfang Uprising Suceed" style="rounded=0;whiteSpace=wrap;html=1;" vertex="1" parent="1">
          <mxGeometry x="600" y="220" width="120" height="60" as="geometry" />
        </mxCell>
        <mxCell id="9dR3rAM5AdJJmml7pfS0-62" style="edgeStyle=orthogonalEdgeStyle;rounded=0;orthogonalLoop=1;jettySize=auto;html=1;exitX=1;exitY=0.5;exitDx=0;exitDy=0;entryX=0;entryY=0.5;entryDx=0;entryDy=0;" edge="1" parent="1" source="9dR3rAM5AdJJmml7pfS0-49" target="9dR3rAM5AdJJmml7pfS0-59">
          <mxGeometry relative="1" as="geometry" />
        </mxCell>
        <mxCell id="9dR3rAM5AdJJmml7pfS0-63" style="edgeStyle=orthogonalEdgeStyle;rounded=0;orthogonalLoop=1;jettySize=auto;html=1;exitX=1;exitY=0.5;exitDx=0;exitDy=0;" edge="1" parent="1" source="9dR3rAM5AdJJmml7pfS0-49" target="9dR3rAM5AdJJmml7pfS0-61">
          <mxGeometry relative="1" as="geometry" />
        </mxCell>
        <mxCell id="9dR3rAM5AdJJmml7pfS0-49" value="Shadowfang Uprising Fails" style="rounded=0;whiteSpace=wrap;html=1;" vertex="1" parent="1">
          <mxGeometry x="600" y="380" width="120" height="60" as="geometry" />
        </mxCell>
        <mxCell id="9dR3rAM5AdJJmml7pfS0-54" style="edgeStyle=orthogonalEdgeStyle;rounded=0;orthogonalLoop=1;jettySize=auto;html=1;exitX=1;exitY=0.5;exitDx=0;exitDy=0;" edge="1" parent="1" source="9dR3rAM5AdJJmml7pfS0-51" target="9dR3rAM5AdJJmml7pfS0-8">
          <mxGeometry relative="1" as="geometry" />
        </mxCell>
        <mxCell id="9dR3rAM5AdJJmml7pfS0-51" value="Trade Lord Karesh eliminate the Shadowfang" style="rounded=0;whiteSpace=wrap;html=1;" vertex="1" parent="1">
          <mxGeometry x="760" y="160" width="120" height="60" as="geometry" />
        </mxCell>
        <mxCell id="9dR3rAM5AdJJmml7pfS0-57" style="edgeStyle=orthogonalEdgeStyle;rounded=0;orthogonalLoop=1;jettySize=auto;html=1;exitX=1;exitY=0.5;exitDx=0;exitDy=0;" edge="1" parent="1" source="9dR3rAM5AdJJmml7pfS0-55" target="9dR3rAM5AdJJmml7pfS0-7">
          <mxGeometry relative="1" as="geometry" />
        </mxCell>
        <mxCell id="9dR3rAM5AdJJmml7pfS0-55" value="High Fangmaster Threll eliminate Karesh" style="rounded=0;whiteSpace=wrap;html=1;" vertex="1" parent="1">
          <mxGeometry x="760" y="280" width="120" height="60" as="geometry" />
        </mxCell>
        <mxCell id="9dR3rAM5AdJJmml7pfS0-56" style="edgeStyle=orthogonalEdgeStyle;rounded=0;orthogonalLoop=1;jettySize=auto;html=1;exitX=1;exitY=0.5;exitDx=0;exitDy=0;entryX=0.049;entryY=0.603;entryDx=0;entryDy=0;entryPerimeter=0;" edge="1" parent="1" source="9dR3rAM5AdJJmml7pfS0-48" target="9dR3rAM5AdJJmml7pfS0-55">
          <mxGeometry relative="1" as="geometry" />
        </mxCell>
        <mxCell id="9dR3rAM5AdJJmml7pfS0-66" style="edgeStyle=orthogonalEdgeStyle;rounded=0;orthogonalLoop=1;jettySize=auto;html=1;exitX=1;exitY=0.5;exitDx=0;exitDy=0;" edge="1" parent="1" source="9dR3rAM5AdJJmml7pfS0-59" target="9dR3rAM5AdJJmml7pfS0-65">
          <mxGeometry relative="1" as="geometry" />
        </mxCell>
        <mxCell id="9dR3rAM5AdJJmml7pfS0-69" style="edgeStyle=orthogonalEdgeStyle;rounded=0;orthogonalLoop=1;jettySize=auto;html=1;exitX=1;exitY=0.5;exitDx=0;exitDy=0;entryX=0;entryY=0.5;entryDx=0;entryDy=0;" edge="1" parent="1" source="9dR3rAM5AdJJmml7pfS0-59" target="9dR3rAM5AdJJmml7pfS0-68">
          <mxGeometry relative="1" as="geometry" />
        </mxCell>
        <mxCell id="9dR3rAM5AdJJmml7pfS0-59" value="Master Sha&#39;Lar is called to pacify Yinchorr" style="rounded=0;whiteSpace=wrap;html=1;" vertex="1" parent="1">
          <mxGeometry x="760" y="480" width="120" height="60" as="geometry" />
        </mxCell>
        <mxCell id="9dR3rAM5AdJJmml7pfS0-64" style="edgeStyle=orthogonalEdgeStyle;rounded=0;orthogonalLoop=1;jettySize=auto;html=1;exitX=1;exitY=0.5;exitDx=0;exitDy=0;" edge="1" parent="1" source="9dR3rAM5AdJJmml7pfS0-61" target="9dR3rAM5AdJJmml7pfS0-11">
          <mxGeometry relative="1" as="geometry" />
        </mxCell>
        <mxCell id="9dR3rAM5AdJJmml7pfS0-61" value="Elder Speaker Vux secure Yinchorr Independence" style="rounded=0;whiteSpace=wrap;html=1;" vertex="1" parent="1">
          <mxGeometry x="760" y="380" width="120" height="60" as="geometry" />
        </mxCell>
        <mxCell id="9dR3rAM5AdJJmml7pfS0-67" style="edgeStyle=orthogonalEdgeStyle;rounded=0;orthogonalLoop=1;jettySize=auto;html=1;exitX=1;exitY=0.5;exitDx=0;exitDy=0;entryX=0;entryY=0.5;entryDx=0;entryDy=0;" edge="1" parent="1" source="9dR3rAM5AdJJmml7pfS0-65" target="9dR3rAM5AdJJmml7pfS0-28">
          <mxGeometry relative="1" as="geometry" />
        </mxCell>
        <mxCell id="9dR3rAM5AdJJmml7pfS0-65" value="Master Sha&#39;Lar suceed in paciftying the planet" style="rounded=0;whiteSpace=wrap;html=1;" vertex="1" parent="1">
          <mxGeometry x="920" y="480" width="120" height="60" as="geometry" />
        </mxCell>
        <mxCell id="9dR3rAM5AdJJmml7pfS0-72" style="edgeStyle=orthogonalEdgeStyle;rounded=0;orthogonalLoop=1;jettySize=auto;html=1;exitX=1;exitY=0.5;exitDx=0;exitDy=0;" edge="1" parent="1" source="9dR3rAM5AdJJmml7pfS0-68" target="9dR3rAM5AdJJmml7pfS0-70">
          <mxGeometry relative="1" as="geometry" />
        </mxCell>
        <mxCell id="9dR3rAM5AdJJmml7pfS0-74" style="edgeStyle=orthogonalEdgeStyle;rounded=0;orthogonalLoop=1;jettySize=auto;html=1;exitX=1;exitY=0.5;exitDx=0;exitDy=0;entryX=0;entryY=0.5;entryDx=0;entryDy=0;" edge="1" parent="1" source="9dR3rAM5AdJJmml7pfS0-68" target="9dR3rAM5AdJJmml7pfS0-73">
          <mxGeometry relative="1" as="geometry" />
        </mxCell>
        <mxCell id="9dR3rAM5AdJJmml7pfS0-68" value="Master Sha&#39;Lar is assassinated by the Order of the Golden Scale" style="rounded=0;whiteSpace=wrap;html=1;" vertex="1" parent="1">
          <mxGeometry x="920" y="580" width="120" height="60" as="geometry" />
        </mxCell>
        <mxCell id="9dR3rAM5AdJJmml7pfS0-75" style="edgeStyle=orthogonalEdgeStyle;rounded=0;orthogonalLoop=1;jettySize=auto;html=1;exitX=1;exitY=0.5;exitDx=0;exitDy=0;" edge="1" parent="1" source="9dR3rAM5AdJJmml7pfS0-70" target="9dR3rAM5AdJJmml7pfS0-12">
          <mxGeometry relative="1" as="geometry" />
        </mxCell>
        <mxCell id="9dR3rAM5AdJJmml7pfS0-70" value="The worker&#39;s uprising is hijacked by Archon Vekurr" style="rounded=0;whiteSpace=wrap;html=1;" vertex="1" parent="1">
          <mxGeometry x="1080" y="580" width="120" height="60" as="geometry" />
        </mxCell>
        <mxCell id="9dR3rAM5AdJJmml7pfS0-76" style="edgeStyle=orthogonalEdgeStyle;rounded=0;orthogonalLoop=1;jettySize=auto;html=1;exitX=1;exitY=0.5;exitDx=0;exitDy=0;" edge="1" parent="1" source="9dR3rAM5AdJJmml7pfS0-73" target="9dR3rAM5AdJJmml7pfS0-19">
          <mxGeometry relative="1" as="geometry" />
        </mxCell>
        <mxCell id="9dR3rAM5AdJJmml7pfS0-73" value="Archon Vekurr dies in the riots" style="rounded=0;whiteSpace=wrap;html=1;" vertex="1" parent="1">
          <mxGeometry x="1080" y="680" width="120" height="60" as="geometry" />
        </mxCell>
      </root>
    </mxGraphModel>
  </diagram>
</mxfile>
